<?xml version="1.0" standalone="no"?>
<!DOCTYPE svg PUBLIC "-//W3C//DTD SVG 20010904//EN"
 "http://www.w3.org/TR/2001/REC-SVG-20010904/DTD/svg10.dtd">
<svg version="1.0" xmlns="http://www.w3.org/2000/svg"
 width="250.000000pt" height="173.000000pt" viewBox="0 0 250.000000 173.000000"
 preserveAspectRatio="xMidYMid meet">
<metadata>
Created by potrace 1.10, written by Peter Selinger 2001-2011
</metadata>
<g transform="translate(0.000000,173.000000) scale(0.100000,-0.100000)"
fill="#000000" stroke="none">
<path d="M332 1493 l-332 -238 258 -257 257 -258 735 0 735 0 258 258 258 258
-328 234 c-180 129 -330 236 -333 238 -3 1 -5 -84 -5 -189 l0 -190 -583 0
-584 0 2 191 c0 104 -1 190 -2 190 -2 0 -153 -107 -336 -237z m319 -160 c16
-18 1179 -19 1197 -1 8 8 12 63 12 180 l0 167 288 -205 c158 -113 293 -209
300 -213 8 -4 -70 -89 -230 -249 l-243 -242 -725 0 -725 0 -240 240 c-131 131
-236 242 -232 246 4 4 136 100 294 213 l288 206 3 -164 c1 -101 7 -170 13
-178z"/>
<path d="M572 1574 c-21 -14 -22 -22 -22 -148 l0 -132 38 -37 38 -37 625 0
625 0 38 39 38 39 0 127 c0 106 -3 129 -18 146 -9 10 -21 19 -26 19 -4 0 -8
-62 -8 -138 0 -132 -1 -140 -23 -160 l-23 -22 -605 0 -606 0 -22 24 c-21 22
-22 30 -19 160 2 75 1 136 -2 136 -3 0 -16 -7 -28 -16z"/>
<path d="M461 1496 c-22 -23 -24 -32 -22 -119 l2 -94 81 -82 82 -81 651 0 650
0 83 83 82 82 0 96 c0 94 0 95 -30 117 l-30 23 0 -113 0 -114 -63 -62 -63 -62
-635 0 -635 0 -61 63 -62 62 -3 113 -3 114 -24 -26z"/>
<path d="M350 1418 c-22 -18 -25 -29 -26 -83 l-1 -63 126 -126 127 -127 674 1
675 0 127 127 128 128 0 60 c0 56 -2 63 -30 83 l-30 23 0 -83 0 -83 -103 -103
-102 -102 -665 0 -665 0 -102 103 -102 102 -3 82 -3 81 -25 -20z"/>
<path d="M238 1336 c-19 -15 -28 -31 -28 -51 0 -26 26 -57 173 -203 l172 -172
695 0 695 0 173 173 c147 148 172 177 172 203 0 22 -8 36 -30 52 l-30 23 0
-53 0 -53 -142 -142 -143 -143 -690 0 -689 -1 -148 148 c-144 144 -147 148
-150 194 l-3 47 -27 -22z"/>
<path d="M127 1258 l-29 -21 213 -213 214 -214 725 0 725 0 214 214 213 213
-31 22 c-28 21 -31 21 -31 4 0 -10 -84 -102 -192 -210 l-193 -193 -705 0 -705
0 -192 193 c-105 105 -193 200 -195 209 -3 15 -6 15 -31 -4z"/>
<path d="M948 307 l303 -303 237 239 c130 131 267 267 305 303 l67 64 -608 0
-608 0 304 -303z m842 273 c0 -3 -121 -126 -268 -273 l-269 -268 -271 273
c-150 150 -272 273 -272 273 0 0 243 0 540 0 297 0 540 -2 540 -5z"/>
<path d="M780 555 c0 0 107 -107 237 -238 l238 -238 232 233 c128 128 233 235
233 238 0 4 -15 4 -34 2 -29 -3 -64 -34 -235 -206 l-201 -203 -201 203 c-170
171 -207 203 -235 206 -19 2 -34 4 -34 3z"/>
<path d="M1000 555 c0 0 57 -58 127 -128 l127 -128 123 128 c68 70 123 128
123 128 0 1 -16 -1 -35 -3 -28 -3 -51 -21 -124 -97 l-90 -93 -91 93 c-74 75
-98 94 -126 97 -19 2 -34 4 -34 3z"/>
<path d="M1110 551 c0 -4 32 -38 70 -76 l70 -69 70 69 c39 38 70 72 70 76 0
19 -61 -9 -97 -44 l-43 -41 -42 41 c-37 35 -98 63 -98 44z"/>
<path d="M1210 552 c0 -5 9 -17 20 -27 19 -17 21 -17 40 0 11 10 20 22 20 27
0 5 -9 4 -20 -2 -14 -8 -26 -8 -40 0 -11 6 -20 7 -20 2z"/>
<path d="M1575 552 c-23 -3 -63 -36 -177 -150 l-148 -147 -148 148 c-125 125
-152 147 -178 147 -28 0 -18 -12 148 -178 l179 -177 179 179 c99 99 178 180
177 181 -1 0 -15 -1 -32 -3z"/>
</g>
</svg>
